PathFileType	4	(x/y/z)	S01_P20_T22
DataRate	CameraRate	NumFrames	NumMarkers	Units	OrigDataRate	OrigDataStartFrame	OrigNumFrames
240	240	10	51	mm	240	152	404
Frame#	Time	Sternum			R.Acromium			L.Acromium			Top.Head			R.ASIS			L.ASIS			R.PSIS			L.PSIS			R.Great.Tro			L.Great.Tro			R.Iliac.Crest			L.Iliac.Crest			V.Sacral			R.Thigh.Upper.Post			R.Thigh.Lower.Ant			R.Thigh.Lower.Post			R.Thigh.Upper.Ant			R.Knee.Lat			R.Knee.Med			R.Shank.Upper.Post			R.Shank.Lower.Ant			R.Shank.Lower.Post			R.Shank.Upper.Ant			R.Ankle.Lat			R.Ankle.Med			R.Heel.Upper			R.Heel.Med			R.Heel.Lat			R.Toe.Lat			R.Toe.Med			R.Toe.Tip			L.Thigh.Upper.Post			L.Thigh.Lower.Ant			L.Thigh.Lower.Post			L.Thigh.Upper.Ant			L.Knee.Lat			L.Knee.Med			L.Shank.Upper.Post			L.Shank.Lower.Ant			L.Shank.Lower.Post			L.Shank.Upper.Ant			L.Ankle.Lat			L.Ankle.Med			L.Heel.Upper			L.Heel.Med			L.Heel.Lat			L.Toe.Lat			L.Toe.Med			L.Toe.Tip			Cervical.Spine			Back			
		X1	Y1	Z1	X2	Y2	Z2	X3	Y3	Z3	X4	Y4	Z4	X5	Y5	Z5	X6	Y6	Z6	X7	Y7	Z7	X8	Y8	Z8	X9	Y9	Z9	X10	Y10	Z10	X11	Y11	Z11	X12	Y12	Z12	X13	Y13	Z13	X14	Y14	Z14	X15	Y15	Z15	X16	Y16	Z16	X17	Y17	Z17	X18	Y18	Z18	X19	Y19	Z19	X20	Y20	Z20	X21	Y21	Z21	X22	Y22	Z22	X23	Y23	Z23	X24	Y24	Z24	X25	Y25	Z25	X26	Y26	Z26	X27	Y27	Z27	X28	Y28	Z28	X29	Y29	Z29	X30	Y30	Z30	X31	Y31	Z31	X32	Y32	Z32	X33	Y33	Z33	X34	Y34	Z34	X35	Y35	Z35	X36	Y36	Z36	X37	Y37	Z37	X38	Y38	Z38	X39	Y39	Z39	X40	Y40	Z40	X41	Y41	Z41	X42	Y42	Z42	X43	Y43	Z43	X44	Y44	Z44	X45	Y45	Z45	X46	Y46	Z46	X47	Y47	Z47	X48	Y48	Z48	X49	Y49	Z49	X50	Y50	Z50	X51	Y51	Z51	

152	0.62917	-570.41	1238.7	278.92	-681.03	1488.4	464.3	-714.47	1509.5	133.4	-666.57	1819.3	292.34	-610.5	995.54	431.19	-611.91	983.52	164.12	-851.31	1033.5	342.28	-854.47	1028.1	239.57	-679.64	948.32	515.38	-722.47	931.94	87.851	-700.51	1090.5	499.62	-723.17	1067.1	92.409	-865.11	994	290.91	-585.53	651.3	478.44	-496.96	609.17	443.94	-554.07	570.7	451.44	-525.24	691.55	471.59	-511.21	519.13	440.25	-520.07	528.23	299.31	-573.46	364.51	461.23	-528.31	277.76	408.83	-586.81	295.7	449.21	-517.17	348.1	428.84	-623.99	101.41	405.98	-596.13	104.83	311.28	-696.04	70.983	347.75	-680.31	40.821	319.6	-686.68	41.114	384.03	-496.87	37.701	443.89	-462.09	39.584	319.27	-400.61	59.297	375.18	-729.85	649.47	100.31	-644.62	586.35	69.535	-707.77	560.84	108.9	-670.96	677.58	67.096	-661.15	488.63	75.893	-600.34	472.66	215.94	-782.3	439.67	70.646	-812.73	334.56	92.587	-843.87	390.78	80.27	-752.7	382.43	79.821	-1016.4	270.84	124.21	-981.61	254.38	216.73	-1074.3	314.47	178.81	-1086.2	294.09	214.75	-1097	293.64	153.91	-1008.7	109.13	106.5	-970.15	94.529	224.29	-933.93	46.713	167.37	-782.59	1558.9	307.23	-872.36	1248.8	319.02
153	0.63333	-564.66	1240.1	278.88	-675.05	1489.6	464.81	-709.11	1511.2	133.98	-660.6	1820.7	293.41	-604.58	996.66	431.15	-606.21	985.1	163.93	-845.47	1035	342.52	-848.7	1029.5	239.82	-673.95	949.31	515.33	-716.74	933.47	87.838	-694.5	1091.7	499.72	-718.07	1068.5	92.458	-859.34	995.44	291.17	-582.03	651.54	478.42	-493.84	608.66	443.88	-551.28	570.69	451.47	-521.42	691.3	471.51	-508.93	518.7	440.27	-517.72	527.8	299.34	-572.15	364.42	461.28	-527.44	277.43	408.92	-585.85	295.67	449.28	-515.93	347.72	428.93	-623.94	101.47	406.02	-596.16	104.92	311.31	-696.09	71.008	347.81	-680.33	40.854	319.65	-686.7	41.106	384.07	-496.89	37.728	443.94	-462.13	39.682	319.3	-400.66	59.383	375.23	-720.39	650.71	100.23	-634.46	588.48	69.593	-697.31	562.34	108.99	-661.75	679.34	66.948	-649.98	490.79	76.052	-589.36	475.4	216.41	-770.91	441.71	71.007	-801.1	336.55	93.141	-832.36	392.69	80.71	-741.17	384.54	80.248	-1004.7	273	125.12	-969.71	256.35	217.52	-1062.7	316.3	179.97	-1074.4	295.77	215.85	-1085.4	295.52	155.03	-996.69	111.35	106.76	-957.6	96.323	224.33	-921.71	48.489	167.12	-776.75	1560.3	307.94	-866.51	1250.2	319.46
154	0.6375	-558.92	1241.7	278.79	-669.08	1490.9	465.27	-703.75	1513	134.52	-654.62	1822.1	294.43	-598.67	997.81	431.09	-600.56	986.75	163.74	-839.63	1036.5	342.78	-842.93	1031	240.08	-668.27	950.3	515.27	-711.03	935.09	87.816	-688.48	1093	499.81	-713	1070	92.501	-853.59	996.96	291.42	-578.64	651.8	478.38	-490.84	608.17	443.83	-548.63	570.7	451.51	-517.7	691.07	471.42	-506.8	518.31	440.31	-515.5	527.38	299.38	-570.95	364.34	461.33	-526.65	277.13	409.01	-584.98	295.66	449.35	-514.79	347.36	429.03	-623.89	101.53	406.07	-596.2	105.02	311.36	-696.15	71.038	347.86	-680.35	40.893	319.69	-686.71	41.102	384.11	-496.92	37.749	444	-462.17	39.785	319.34	-400.71	59.472	375.28	-710.97	652.09	100.13	-624.33	590.75	69.687	-686.9	563.97	109.06	-652.56	681.22	66.805	-638.89	493.06	76.262	-578.46	478.28	216.89	-759.59	443.7	71.426	-789.39	338.46	93.734	-820.87	394.48	81.201	-729.65	386.64	80.71	-992.88	274.77	126.08	-957.61	258.01	218.37	-1050.9	317.61	181.17	-1062.5	296.91	216.99	-1073.6	296.84	156.2	-984.22	113.25	107.08	-944.56	97.903	224.45	-908.87	50.203	166.95	-770.91	1561.7	308.6	-860.67	1251.7	319.89
155	0.64167	-553.19	1243.3	278.67	-663.1	1492.2	465.69	-698.39	1514.8	135.02	-648.63	1823.6	295.39	-592.78	998.99	431	-594.96	988.47	163.56	-833.81	1038.1	343.03	-837.18	1032.6	240.35	-662.61	951.31	515.19	-705.32	936.82	87.785	-682.44	1094.4	499.87	-707.93	1071.6	92.543	-847.85	998.55	291.67	-575.36	652.1	478.34	-487.96	607.7	443.78	-546.1	570.73	451.54	-514.09	690.85	471.34	-504.79	517.94	440.35	-513.39	526.99	299.43	-569.84	364.28	461.39	-525.92	276.86	409.11	-584.19	295.66	449.41	-513.74	347.04	429.14	-623.85	101.59	406.13	-596.24	105.13	311.41	-696.2	71.075	347.92	-680.37	40.937	319.73	-686.72	41.104	384.16	-496.94	37.763	444.05	-462.21	39.891	319.38	-400.75	59.561	375.34	-701.58	653.58	99.999	-614.21	593.15	69.811	-676.54	565.73	109.1	-643.39	683.22	66.665	-627.89	495.42	76.513	-567.65	481.3	217.4	-748.35	445.63	71.895	-777.62	340.28	94.356	-809.38	396.14	81.734	-718.13	388.72	81.2	-980.89	276.16	127.07	-945.32	259.35	219.25	-1039	318.42	182.4	-1050.4	297.54	218.16	-1061.7	297.61	157.39	-971.27	114.82	107.47	-931.06	99.259	224.63	-895.44	51.823	166.87	-765.07	1563.2	309.23	-854.85	1253.2	320.32
156	0.64583	-547.47	1244.9	278.52	-657.13	1493.6	466.08	-693.02	1516.6	135.49	-642.63	1825.2	296.3	-586.92	1000.2	430.9	-589.41	990.26	163.4	-827.99	1039.7	343.29	-831.42	1034.2	240.61	-656.96	952.33	515.1	-699.61	938.64	87.745	-676.38	1095.8	499.9	-702.85	1073.3	92.59	-842.12	1000.2	291.92	-572.19	652.41	478.28	-485.2	607.23	443.74	-543.68	570.8	451.58	-510.58	690.64	471.26	-502.91	517.6	440.39	-511.39	526.62	299.49	-568.82	364.24	461.45	-525.26	276.62	409.23	-583.47	295.68	449.48	-512.77	346.75	429.26	-623.81	101.65	406.19	-596.28	105.26	311.47	-696.25	71.117	347.97	-680.38	40.988	319.77	-686.73	41.112	384.2	-496.96	37.77	444.11	-462.25	39.998	319.42	-400.8	59.647	375.4	-692.23	655.19	99.836	-604.13	595.67	69.962	-666.23	567.61	109.1	-634.26	685.33	66.526	-616.97	497.87	76.799	-556.92	484.42	217.91	-737.18	447.5	72.405	-765.78	342	95.001	-797.89	397.66	82.301	-706.62	390.78	81.713	-968.73	277.15	128.09	-932.84	260.39	220.15	-1027.1	318.73	183.65	-1038.2	297.66	219.34	-1049.6	297.84	158.61	-957.87	116.05	107.91	-917.11	100.38	224.89	-881.45	53.328	166.87	-759.23	1564.8	309.82	-849.04	1254.7	320.75
157	0.65	-541.76	1246.6	278.35	-651.16	1495.1	466.43	-687.63	1518.4	135.92	-636.63	1826.7	297.16	-581.08	1001.4	430.79	-583.91	992.11	163.27	-822.18	1041.3	343.54	-825.67	1035.9	240.88	-651.32	953.37	514.99	-693.9	940.54	87.696	-670.3	1097.3	499.92	-697.76	1075.1	92.647	-836.4	1001.9	292.15	-569.12	652.75	478.21	-482.54	606.78	443.7	-541.38	570.89	451.62	-507.16	690.45	471.18	-501.15	517.29	440.44	-509.5	526.28	299.55	-567.89	364.22	461.52	-524.66	276.4	409.35	-582.81	295.71	449.54	-511.89	346.49	429.39	-623.78	101.72	406.25	-596.32	105.4	311.54	-696.29	71.165	348.03	-680.39	41.046	319.81	-686.74	41.127	384.24	-496.97	37.772	444.18	-462.28	40.103	319.47	-400.84	59.728	375.46	-682.92	656.91	99.638	-594.07	598.29	70.134	-655.99	569.61	109.06	-625.15	687.53	66.389	-606.13	500.4	77.114	-546.26	487.66	218.42	-726.09	449.31	72.948	-753.88	343.63	95.661	-786.41	399.03	82.896	-695.11	392.8	82.244	-956.41	277.75	129.11	-920.19	261.11	221.08	-1015.1	318.57	184.9	-1025.8	297.3	220.53	-1037.4	297.56	159.82	-944.04	116.94	108.4	-902.75	101.28	225.21	-866.94	54.701	166.96	-753.4	1566.3	310.37	-843.24	1256.3	321.18
158	0.65417	-536.07	1248.4	278.16	-645.19	1496.6	466.75	-682.23	1520.3	136.32	-630.63	1828.3	297.95	-575.26	1002.7	430.66	-578.45	994.01	163.16	-816.38	1043	343.79	-819.92	1037.7	241.13	-645.7	954.41	514.86	-688.19	942.52	87.637	-664.21	1098.9	499.91	-692.65	1076.9	92.716	-830.68	1003.7	292.36	-566.13	653.12	478.14	-479.98	606.35	443.66	-539.18	571.01	451.65	-503.84	690.27	471.09	-499.49	517.01	440.49	-507.7	525.97	299.61	-567.03	364.22	461.58	-524.11	276.22	409.48	-582.23	295.76	449.6	-511.08	346.26	429.52	-623.75	101.79	406.32	-596.35	105.55	311.61	-696.34	71.22	348.09	-680.4	41.111	319.85	-686.74	41.149	384.28	-496.99	37.767	444.24	-462.32	40.206	319.52	-400.88	59.803	375.53	-673.65	658.73	99.404	-584.06	601.02	70.325	-645.81	571.7	108.97	-616.08	689.83	66.254	-595.38	502.99	77.453	-535.68	490.98	218.93	-715.07	451.04	73.517	-741.92	345.15	96.329	-774.92	400.26	83.51	-683.61	394.78	82.789	-943.92	277.96	130.13	-907.35	261.53	222.02	-1002.9	317.95	186.14	-1013.3	296.46	221.7	-1025	296.77	161.02	-929.79	117.49	108.94	-887.99	101.94	225.6	-851.93	55.933	167.13	-747.56	1568	310.89	-837.44	1258	321.62
159	0.65833	-530.38	1250.1	277.97	-639.21	1498.2	467.04	-676.82	1522.2	136.7	-624.63	1829.9	298.69	-569.46	1003.9	430.51	-573.03	995.95	163.08	-810.58	1044.8	344.02	-814.18	1039.5	241.37	-640.09	955.46	514.72	-682.48	944.55	87.569	-658.09	1100.5	499.88	-687.5	1078.8	92.8	-824.97	1005.4	292.56	-563.24	653.51	478.05	-477.52	605.93	443.64	-537.08	571.14	451.68	-500.6	690.1	471	-497.93	516.77	440.54	-506	525.68	299.67	-566.25	364.23	461.64	-523.61	276.06	409.61	-581.7	295.82	449.65	-510.34	346.07	429.65	-623.72	101.86	406.39	-596.35	105.7	311.69	-696.38	71.28	348.14	-680.4	41.184	319.89	-686.75	41.18	384.32	-497	37.757	444.31	-462.36	40.305	319.57	-400.92	59.87	375.6	-664.43	660.62	99.132	-574.08	603.83	70.531	-635.7	573.88	108.83	-607.05	692.21	66.122	-584.71	505.64	77.811	-525.19	494.38	219.44	-704.12	452.68	74.104	-729.9	346.56	97.002	-763.44	401.34	84.138	-672.12	396.71	83.343	-931.27	277.8	131.14	-894.35	261.65	222.96	-990.69	316.87	187.35	-1000.7	295.18	222.86	-1012.5	295.49	162.2	-915.15	117.72	109.52	-872.86	102.39	226.04	-836.46	57.019	167.37	-741.71	1569.6	311.38	-831.64	1259.7	322.07
160	0.6625	-524.69	1251.9	277.78	-633.23	1499.8	467.3	-671.39	1524.1	137.05	-618.64	1831.6	299.38	-563.69	1005.2	430.36	-567.65	997.93	163.03	-804.79	1046.5	344.23	-808.43	1041.4	241.59	-634.5	956.52	514.56	-676.75	946.65	87.489	-651.95	1102.2	499.83	-682.31	1080.8	92.901	-819.25	1007.3	292.72	-560.42	653.91	477.95	-475.15	605.52	443.61	-535.06	571.31	451.71	-497.45	689.94	470.91	-496.47	516.55	440.59	-504.39	525.43	299.74	-565.54	364.27	461.7	-523.16	275.93	409.75	-581.23	295.9	449.69	-509.65	345.9	429.79	-623.69	101.94	406.46	-596.34	105.85	311.77	-696.41	71.347	348.2	-680.41	41.265	319.92	-686.75	41.218	384.36	-497.01	37.742	444.38	-462.39	40.398	319.63	-400.96	59.927	375.67	-655.27	662.6	98.824	-564.15	606.72	70.75	-625.67	576.13	108.65	-598.07	694.67	65.996	-574.13	508.32	78.186	-514.79	497.84	219.95	-693.23	454.24	74.702	-717.82	347.88	97.673	-751.96	402.28	84.774	-660.64	398.6	83.902	-918.45	277.28	132.14	-881.18	261.48	223.89	-978.34	315.37	188.53	-987.97	293.45	223.98	-999.86	293.74	163.34	-900.12	117.63	110.14	-857.37	102.61	226.53	-820.54	57.957	167.69	-735.87	1571.2	311.84	-825.83	1261.4	322.52
161	0.66667	-519.02	1253.8	277.6	-627.25	1501.5	467.54	-665.95	1525.9	137.37	-612.65	1833.2	300	-557.93	1006.5	430.2	-562.3	999.94	163.01	-799.01	1048.3	344.42	-802.69	1043.3	241.78	-628.93	957.59	514.39	-671.01	948.78	87.398	-645.8	1103.8	499.76	-677.07	1082.9	93.02	-813.54	1009.1	292.86	-557.68	654.34	477.85	-472.87	605.12	443.59	-533.13	571.49	451.73	-494.36	689.78	470.82	-495.09	516.36	440.64	-502.85	525.2	299.8	-564.89	364.33	461.75	-522.75	275.83	409.9	-580.81	295.99	449.73	-509.03	345.75	429.93	-623.66	102.02	406.53	-596.32	106	311.86	-696.43	71.42	348.26	-680.41	41.354	319.96	-686.75	41.265	384.4	-497.02	37.724	444.45	-462.42	40.485	319.69	-400.99	59.976	375.74	-646.15	664.64	98.48	-554.28	609.68	70.979	-615.71	578.45	108.42	-589.15	697.2	65.878	-563.64	511.05	78.576	-504.49	501.36	220.45	-682.4	455.71	75.307	-705.69	349.09	98.339	-740.48	403.07	85.414	-649.16	400.44	84.464	-905.47	276.4	133.12	-867.84	261.02	224.82	-965.86	313.44	189.67	-975.08	291.32	225.07	-987.05	291.55	164.44	-884.73	117.25	110.77	-841.55	102.63	227.05	-804.21	58.751	168.06	-730.01	1572.9	312.27	-820.02	1263.1	322.98
